<mxfile host="Electron" modified="2024-01-24T06:32:09.480Z" agent="Mozilla/5.0 (Windows NT 10.0; Win64; x64) AppleWebKit/537.36 (KHTML, like Gecko) draw.io/22.1.18 Chrome/120.0.6099.199 Electron/28.1.2 Safari/537.36" etag="NPC0kfwQFS0Tl0GTJhjK" version="22.1.18" type="device">
  <diagram name="第 1 页" id="vEcROoddaWqZLWpCbtlF">
    <mxGraphModel dx="698" dy="470" grid="1" gridSize="10" guides="1" tooltips="1" connect="1" arrows="1" fold="1" page="1" pageScale="1" pageWidth="827" pageHeight="1169" math="0" shadow="0">
      <root>
        <mxCell id="0" />
        <mxCell id="1" parent="0" />
        <mxCell id="5eYcbbUCq31YL_3qZCXC-1" value="&lt;font style=&quot;font-size: 18px;&quot;&gt;原始数据&lt;/font&gt;" style="rounded=0;whiteSpace=wrap;html=1;" parent="1" vertex="1">
          <mxGeometry x="240" y="200" width="120" height="60" as="geometry" />
        </mxCell>
        <mxCell id="5eYcbbUCq31YL_3qZCXC-6" value="&lt;span style=&quot;font-size: 18px;&quot;&gt;可视化数据&lt;/span&gt;" style="rounded=0;whiteSpace=wrap;html=1;" parent="1" vertex="1">
          <mxGeometry x="120" y="320" width="120" height="60" as="geometry" />
        </mxCell>
        <mxCell id="5eYcbbUCq31YL_3qZCXC-9" value="&lt;span style=&quot;font-size: 18px;&quot;&gt;JPEG图像&lt;/span&gt;" style="rounded=0;whiteSpace=wrap;html=1;" parent="1" vertex="1">
          <mxGeometry x="120" y="440" width="120" height="60" as="geometry" />
        </mxCell>
        <mxCell id="5eYcbbUCq31YL_3qZCXC-10" value="&lt;span style=&quot;font-size: 18px;&quot;&gt;base64&lt;br&gt;编码数据&lt;/span&gt;" style="rounded=0;whiteSpace=wrap;html=1;" parent="1" vertex="1">
          <mxGeometry x="360" y="320" width="120" height="60" as="geometry" />
        </mxCell>
        <mxCell id="5eYcbbUCq31YL_3qZCXC-12" value="" style="endArrow=classic;html=1;rounded=0;entryX=0.5;entryY=0;entryDx=0;entryDy=0;exitX=0.25;exitY=1;exitDx=0;exitDy=0;" parent="1" source="5eYcbbUCq31YL_3qZCXC-1" target="5eYcbbUCq31YL_3qZCXC-6" edge="1">
          <mxGeometry width="50" height="50" relative="1" as="geometry">
            <mxPoint x="290" y="390" as="sourcePoint" />
            <mxPoint x="340" y="340" as="targetPoint" />
          </mxGeometry>
        </mxCell>
        <mxCell id="5eYcbbUCq31YL_3qZCXC-13" value="数据解析" style="edgeLabel;html=1;align=center;verticalAlign=middle;resizable=0;points=[];" parent="5eYcbbUCq31YL_3qZCXC-12" vertex="1" connectable="0">
          <mxGeometry x="-0.0256" y="-1" relative="1" as="geometry">
            <mxPoint as="offset" />
          </mxGeometry>
        </mxCell>
        <mxCell id="5eYcbbUCq31YL_3qZCXC-14" value="" style="endArrow=classic;html=1;rounded=0;entryX=0.5;entryY=0;entryDx=0;entryDy=0;exitX=0.75;exitY=1;exitDx=0;exitDy=0;" parent="1" source="5eYcbbUCq31YL_3qZCXC-1" target="5eYcbbUCq31YL_3qZCXC-10" edge="1">
          <mxGeometry width="50" height="50" relative="1" as="geometry">
            <mxPoint x="290" y="390" as="sourcePoint" />
            <mxPoint x="340" y="340" as="targetPoint" />
          </mxGeometry>
        </mxCell>
        <mxCell id="5eYcbbUCq31YL_3qZCXC-15" value="base64编码" style="edgeLabel;html=1;align=center;verticalAlign=middle;resizable=0;points=[];" parent="5eYcbbUCq31YL_3qZCXC-14" vertex="1" connectable="0">
          <mxGeometry x="-0.1323" y="-1" relative="1" as="geometry">
            <mxPoint as="offset" />
          </mxGeometry>
        </mxCell>
        <mxCell id="5eYcbbUCq31YL_3qZCXC-16" value="" style="endArrow=classic;html=1;rounded=0;entryX=0.5;entryY=0;entryDx=0;entryDy=0;exitX=0.5;exitY=1;exitDx=0;exitDy=0;" parent="1" source="5eYcbbUCq31YL_3qZCXC-6" target="5eYcbbUCq31YL_3qZCXC-9" edge="1">
          <mxGeometry width="50" height="50" relative="1" as="geometry">
            <mxPoint x="290" y="430" as="sourcePoint" />
            <mxPoint x="340" y="380" as="targetPoint" />
          </mxGeometry>
        </mxCell>
        <mxCell id="5eYcbbUCq31YL_3qZCXC-17" value="jpeg编码" style="edgeLabel;html=1;align=center;verticalAlign=middle;resizable=0;points=[];" parent="5eYcbbUCq31YL_3qZCXC-16" vertex="1" connectable="0">
          <mxGeometry x="-0.02" relative="1" as="geometry">
            <mxPoint as="offset" />
          </mxGeometry>
        </mxCell>
        <mxCell id="5eYcbbUCq31YL_3qZCXC-18" value="&lt;font style=&quot;font-size: 18px;&quot;&gt;隐写后文件&lt;/font&gt;" style="rounded=0;whiteSpace=wrap;html=1;" parent="1" vertex="1">
          <mxGeometry x="240" y="560" width="120" height="60" as="geometry" />
        </mxCell>
        <mxCell id="5eYcbbUCq31YL_3qZCXC-19" value="" style="endArrow=classic;html=1;rounded=0;entryX=0.25;entryY=0;entryDx=0;entryDy=0;exitX=0.5;exitY=1;exitDx=0;exitDy=0;" parent="1" source="5eYcbbUCq31YL_3qZCXC-9" target="5eYcbbUCq31YL_3qZCXC-18" edge="1">
          <mxGeometry width="50" height="50" relative="1" as="geometry">
            <mxPoint x="270" y="550" as="sourcePoint" />
            <mxPoint x="320" y="500" as="targetPoint" />
          </mxGeometry>
        </mxCell>
        <mxCell id="5eYcbbUCq31YL_3qZCXC-20" value="" style="endArrow=classic;html=1;rounded=0;entryX=0.75;entryY=0;entryDx=0;entryDy=0;exitX=0.5;exitY=1;exitDx=0;exitDy=0;" parent="1" source="5eYcbbUCq31YL_3qZCXC-10" target="5eYcbbUCq31YL_3qZCXC-18" edge="1">
          <mxGeometry width="50" height="50" relative="1" as="geometry">
            <mxPoint x="270" y="470" as="sourcePoint" />
            <mxPoint x="320" y="420" as="targetPoint" />
          </mxGeometry>
        </mxCell>
        <mxCell id="5eYcbbUCq31YL_3qZCXC-21" value="隐写" style="edgeLabel;html=1;align=center;verticalAlign=middle;resizable=0;points=[];" parent="5eYcbbUCq31YL_3qZCXC-20" vertex="1" connectable="0">
          <mxGeometry x="0.0009" y="1" relative="1" as="geometry">
            <mxPoint as="offset" />
          </mxGeometry>
        </mxCell>
      </root>
    </mxGraphModel>
  </diagram>
</mxfile>
